<svg width="406" height="194" viewBox="0 0 406 194" fill="none" xmlns="http://www.w3.org/2000/svg">
<g filter="url(#filter0_d_23_126)">
<rect x="22" y="14" width="358" height="146" rx="16" fill="white" shape-rendering="crispEdges"/>
<rect x="38.5" y="30.5" width="133" height="29" rx="11.5" fill="white"/>
<rect x="38.5" y="30.5" width="133" height="29" rx="11.5" stroke="#F59E0B"/>
<path d="M58.2074 43.1108H56.8778C56.8267 42.8267 56.7315 42.5767 56.5923 42.3608C56.4531 42.1449 56.2827 41.9616 56.081 41.8111C55.8793 41.6605 55.6534 41.5469 55.4034 41.4702C55.1563 41.3935 54.8935 41.3551 54.6151 41.3551C54.1122 41.3551 53.6619 41.4815 53.2642 41.7344C52.8693 41.9872 52.5568 42.358 52.3267 42.8466C52.0994 43.3352 51.9858 43.9318 51.9858 44.6364C51.9858 45.3466 52.0994 45.946 52.3267 46.4347C52.5568 46.9233 52.8707 47.2926 53.2685 47.5426C53.6662 47.7926 54.1136 47.9176 54.6108 47.9176C54.8864 47.9176 55.1477 47.8807 55.3949 47.8068C55.6449 47.7301 55.8707 47.6179 56.0724 47.4702C56.2741 47.3224 56.4446 47.142 56.5838 46.929C56.7259 46.7131 56.8239 46.4659 56.8778 46.1875L58.2074 46.1918C58.1364 46.6207 57.9986 47.0156 57.794 47.3764C57.5923 47.7344 57.3324 48.044 57.0142 48.3054C56.6989 48.5639 56.3381 48.7642 55.9318 48.9062C55.5256 49.0483 55.0824 49.1193 54.6023 49.1193C53.8466 49.1193 53.1733 48.9403 52.5824 48.5824C51.9915 48.2216 51.5256 47.706 51.1847 47.0355C50.8466 46.3651 50.6776 45.5653 50.6776 44.6364C50.6776 43.7045 50.848 42.9048 51.1889 42.2372C51.5298 41.5668 51.9957 41.0526 52.5866 40.6946C53.1776 40.3338 53.8494 40.1534 54.6023 40.1534C55.0653 40.1534 55.4972 40.2202 55.8977 40.3537C56.3011 40.4844 56.6634 40.6776 56.9844 40.9332C57.3054 41.1861 57.571 41.4957 57.7812 41.8622C57.9915 42.2259 58.1335 42.642 58.2074 43.1108ZM61.5856 49.1449C61.1708 49.1449 60.7958 49.0682 60.4606 48.9148C60.1254 48.7585 59.8597 48.5327 59.6637 48.2372C59.4705 47.9418 59.3739 47.5795 59.3739 47.1506C59.3739 46.7812 59.445 46.4773 59.587 46.2386C59.729 46 59.9208 45.8111 60.1623 45.6719C60.4038 45.5327 60.6737 45.4276 60.9719 45.3565C61.2702 45.2855 61.5742 45.2315 61.8839 45.1946C62.2759 45.1491 62.5941 45.1122 62.8384 45.0838C63.0827 45.0526 63.2603 45.0028 63.3711 44.9347C63.4819 44.8665 63.5373 44.7557 63.5373 44.6023V44.5724C63.5373 44.2003 63.4322 43.9119 63.2219 43.7074C63.0146 43.5028 62.7049 43.4006 62.293 43.4006C61.864 43.4006 61.5259 43.4957 61.2788 43.6861C61.0344 43.8736 60.8654 44.0824 60.7717 44.3125L59.5742 44.0398C59.7163 43.642 59.9237 43.321 60.1964 43.0767C60.4719 42.8295 60.7887 42.6506 61.1467 42.5398C61.5046 42.4261 61.881 42.3693 62.2759 42.3693C62.5373 42.3693 62.8143 42.4006 63.1069 42.4631C63.4023 42.5227 63.6779 42.6335 63.9336 42.7955C64.1921 42.9574 64.4038 43.1889 64.5685 43.4901C64.7333 43.7884 64.8157 44.1761 64.8157 44.6534V49H63.5714V48.1051H63.5202C63.4379 48.2699 63.3143 48.4318 63.1495 48.5909C62.9847 48.75 62.7731 48.8821 62.5146 48.9872C62.256 49.0923 61.9464 49.1449 61.5856 49.1449ZM61.8626 48.1222C62.2148 48.1222 62.516 48.0526 62.766 47.9134C63.0188 47.7741 63.2106 47.5923 63.3413 47.3679C63.4748 47.1406 63.5415 46.8977 63.5415 46.6392V45.7955C63.4961 45.8409 63.408 45.8835 63.2773 45.9233C63.1495 45.9602 63.0032 45.9929 62.8384 46.0213C62.6737 46.0469 62.5131 46.071 62.3569 46.0938C62.2006 46.1136 62.07 46.1307 61.9648 46.1449C61.7177 46.1761 61.4918 46.2287 61.2873 46.3026C61.0856 46.3764 60.9237 46.483 60.8015 46.6222C60.6822 46.7585 60.6225 46.9403 60.6225 47.1676C60.6225 47.483 60.739 47.7216 60.9719 47.8835C61.2049 48.0426 61.5018 48.1222 61.8626 48.1222ZM69.5682 42.4545V43.4773H65.9929V42.4545H69.5682ZM66.9517 40.8864H68.2259V47.0781C68.2259 47.3253 68.2628 47.5114 68.3366 47.6364C68.4105 47.7585 68.5057 47.8423 68.6222 47.8878C68.7415 47.9304 68.8707 47.9517 69.0099 47.9517C69.1122 47.9517 69.2017 47.9446 69.2784 47.9304C69.3551 47.9162 69.4148 47.9048 69.4574 47.8963L69.6875 48.9489C69.6136 48.9773 69.5085 49.0057 69.3722 49.0341C69.2358 49.0653 69.0653 49.0824 68.8608 49.0852C68.5256 49.0909 68.2131 49.0312 67.9233 48.9062C67.6335 48.7812 67.3991 48.5881 67.2202 48.3267C67.0412 48.0653 66.9517 47.7372 66.9517 47.3423V40.8864ZM73.7283 49.1321C73.0835 49.1321 72.5281 48.9943 72.0621 48.7188C71.5991 48.4403 71.2411 48.0497 70.9883 47.5469C70.7383 47.0412 70.6133 46.4489 70.6133 45.7699C70.6133 45.0994 70.7383 44.5085 70.9883 43.9972C71.2411 43.4858 71.5934 43.0866 72.0451 42.7997C72.4996 42.5128 73.0309 42.3693 73.6388 42.3693C74.0082 42.3693 74.3661 42.4304 74.7127 42.5526C75.0593 42.6747 75.3704 42.8665 75.646 43.1278C75.9215 43.3892 76.1388 43.7287 76.2979 44.1463C76.457 44.5611 76.5366 45.0653 76.5366 45.6591V46.1108H71.3335V45.1562H75.288C75.288 44.821 75.2198 44.5241 75.0835 44.2656C74.9471 44.0043 74.7553 43.7983 74.5082 43.6477C74.2638 43.4972 73.9769 43.4219 73.6474 43.4219C73.2894 43.4219 72.9769 43.5099 72.7099 43.6861C72.4457 43.8594 72.2411 44.0866 72.0962 44.3679C71.9542 44.6463 71.8832 44.9489 71.8832 45.2756V46.0213C71.8832 46.4588 71.9599 46.831 72.1133 47.1378C72.2695 47.4446 72.4869 47.679 72.7653 47.8409C73.0437 48 73.369 48.0795 73.7411 48.0795C73.9826 48.0795 74.2028 48.0455 74.4016 47.9773C74.6005 47.9062 74.7724 47.8011 74.9173 47.6619C75.0621 47.5227 75.1729 47.3509 75.2496 47.1463L76.4556 47.3636C76.359 47.7187 76.1857 48.0298 75.9357 48.2969C75.6886 48.5611 75.3775 48.767 75.0025 48.9148C74.6303 49.0597 74.2056 49.1321 73.7283 49.1321ZM80.6946 51.5909C80.1747 51.5909 79.7273 51.5227 79.3523 51.3864C78.9801 51.25 78.6761 51.0696 78.4403 50.8452C78.2045 50.6207 78.0284 50.375 77.9119 50.108L79.0071 49.6562C79.0838 49.7812 79.1861 49.9134 79.3139 50.0526C79.4446 50.1946 79.6207 50.3153 79.8423 50.4148C80.0668 50.5142 80.3551 50.5639 80.7074 50.5639C81.1903 50.5639 81.5895 50.446 81.9048 50.2102C82.2202 49.9773 82.3778 49.6051 82.3778 49.0938V47.8068H82.2969C82.2202 47.946 82.1094 48.1009 81.9645 48.2713C81.8224 48.4418 81.6264 48.5895 81.3764 48.7145C81.1264 48.8395 80.8011 48.902 80.4006 48.902C79.8835 48.902 79.4176 48.7812 79.0028 48.5398C78.5909 48.2955 78.2642 47.9361 78.0227 47.4616C77.7841 46.9844 77.6648 46.3977 77.6648 45.7017C77.6648 45.0057 77.7827 44.4091 78.0185 43.9119C78.2571 43.4148 78.5838 43.0341 78.9986 42.7699C79.4134 42.5028 79.8835 42.3693 80.4091 42.3693C80.8153 42.3693 81.1435 42.4375 81.3935 42.5739C81.6435 42.7074 81.8381 42.8636 81.9773 43.0426C82.1193 43.2216 82.2287 43.3793 82.3054 43.5156H82.3991V42.4545H83.6477V49.1449C83.6477 49.7074 83.517 50.169 83.2557 50.5298C82.9943 50.8906 82.6406 51.1577 82.1946 51.331C81.7514 51.5043 81.2514 51.5909 80.6946 51.5909ZM80.6818 47.8452C81.0483 47.8452 81.358 47.7599 81.6108 47.5895C81.8665 47.4162 82.0597 47.169 82.1903 46.848C82.3239 46.5241 82.3906 46.1364 82.3906 45.6847C82.3906 45.2443 82.3253 44.8565 82.1946 44.5213C82.0639 44.1861 81.8722 43.9247 81.6193 43.7372C81.3665 43.5469 81.054 43.4517 80.6818 43.4517C80.2983 43.4517 79.9787 43.5511 79.723 43.75C79.4673 43.946 79.2741 44.2131 79.1435 44.5511C79.0156 44.8892 78.9517 45.267 78.9517 45.6847C78.9517 46.1136 79.017 46.4901 79.1477 46.8139C79.2784 47.1378 79.4716 47.3906 79.7273 47.5724C79.9858 47.7543 80.304 47.8452 80.6818 47.8452ZM88.1136 49.1321C87.5 49.1321 86.9645 48.9915 86.5071 48.7102C86.0497 48.429 85.6946 48.0355 85.4418 47.5298C85.1889 47.0241 85.0625 46.4332 85.0625 45.7571C85.0625 45.0781 85.1889 44.4844 85.4418 43.9759C85.6946 43.4673 86.0497 43.0724 86.5071 42.7912C86.9645 42.5099 87.5 42.3693 88.1136 42.3693C88.7273 42.3693 89.2628 42.5099 89.7202 42.7912C90.1776 43.0724 90.5327 43.4673 90.7855 43.9759C91.0384 44.4844 91.1648 45.0781 91.1648 45.7571C91.1648 46.4332 91.0384 47.0241 90.7855 47.5298C90.5327 48.0355 90.1776 48.429 89.7202 48.7102C89.2628 48.9915 88.7273 49.1321 88.1136 49.1321ZM88.1179 48.0625C88.5156 48.0625 88.8452 47.9574 89.1065 47.7472C89.3679 47.5369 89.5611 47.2571 89.6861 46.9077C89.8139 46.5582 89.8778 46.1733 89.8778 45.7528C89.8778 45.3352 89.8139 44.9517 89.6861 44.6023C89.5611 44.25 89.3679 43.9673 89.1065 43.7543C88.8452 43.5412 88.5156 43.4347 88.1179 43.4347C87.7173 43.4347 87.3849 43.5412 87.1207 43.7543C86.8594 43.9673 86.6648 44.25 86.5369 44.6023C86.4119 44.9517 86.3494 45.3352 86.3494 45.7528C86.3494 46.1733 86.4119 46.5582 86.5369 46.9077C86.6648 47.2571 86.8594 47.5369 87.1207 47.7472C87.3849 47.9574 87.7173 48.0625 88.1179 48.0625ZM92.587 49V42.4545H93.8185V43.4943H93.8867C94.006 43.142 94.2163 42.8651 94.5174 42.6634C94.8214 42.4588 95.1651 42.3565 95.5487 42.3565C95.6282 42.3565 95.7219 42.3594 95.8299 42.3651C95.9407 42.3707 96.0273 42.3778 96.0898 42.3864V43.6051C96.0387 43.5909 95.9478 43.5753 95.8171 43.5582C95.6864 43.5384 95.5558 43.5284 95.4251 43.5284C95.1239 43.5284 94.8555 43.5923 94.6197 43.7202C94.3867 43.8452 94.2021 44.0199 94.0657 44.2443C93.9293 44.4659 93.8612 44.7187 93.8612 45.0028V49H92.587ZM97.1925 49V42.4545H98.4666V49H97.1925ZM97.3118 41.581L98.3089 39.6165H99.6513L98.3303 41.581H97.3118ZM102.086 49.1449C101.671 49.1449 101.296 49.0682 100.961 48.9148C100.625 48.7585 100.36 48.5327 100.164 48.2372C99.9705 47.9418 99.8739 47.5795 99.8739 47.1506C99.8739 46.7812 99.945 46.4773 100.087 46.2386C100.229 46 100.421 45.8111 100.662 45.6719C100.904 45.5327 101.174 45.4276 101.472 45.3565C101.77 45.2855 102.074 45.2315 102.384 45.1946C102.776 45.1491 103.094 45.1122 103.338 45.0838C103.583 45.0526 103.76 45.0028 103.871 44.9347C103.982 44.8665 104.037 44.7557 104.037 44.6023V44.5724C104.037 44.2003 103.932 43.9119 103.722 43.7074C103.515 43.5028 103.205 43.4006 102.793 43.4006C102.364 43.4006 102.026 43.4957 101.779 43.6861C101.534 43.8736 101.365 44.0824 101.272 44.3125L100.074 44.0398C100.216 43.642 100.424 43.321 100.696 43.0767C100.972 42.8295 101.289 42.6506 101.647 42.5398C102.005 42.4261 102.381 42.3693 102.776 42.3693C103.037 42.3693 103.314 42.4006 103.607 42.4631C103.902 42.5227 104.178 42.6335 104.434 42.7955C104.692 42.9574 104.904 43.1889 105.069 43.4901C105.233 43.7884 105.316 44.1761 105.316 44.6534V49H104.071V48.1051H104.02C103.938 48.2699 103.814 48.4318 103.65 48.5909C103.485 48.75 103.273 48.8821 103.015 48.9872C102.756 49.0923 102.446 49.1449 102.086 49.1449ZM102.363 48.1222C102.715 48.1222 103.016 48.0526 103.266 47.9134C103.519 47.7741 103.711 47.5923 103.841 47.3679C103.975 47.1406 104.042 46.8977 104.042 46.6392V45.7955C103.996 45.8409 103.908 45.8835 103.777 45.9233C103.65 45.9602 103.503 45.9929 103.338 46.0213C103.174 46.0469 103.013 46.071 102.857 46.0938C102.701 46.1136 102.57 46.1307 102.465 46.1449C102.218 46.1761 101.992 46.2287 101.787 46.3026C101.586 46.3764 101.424 46.483 101.301 46.6222C101.182 46.7585 101.123 46.9403 101.123 47.1676C101.123 47.483 101.239 47.7216 101.472 47.8835C101.705 48.0426 102.002 48.1222 102.363 48.1222Z" fill="#F59E0B"/>
<path d="M39.598 97V82.4545H44.7827C45.9143 82.4545 46.8518 82.6605 47.5952 83.0724C48.3385 83.4844 48.8949 84.0478 49.2642 84.7628C49.6335 85.473 49.8182 86.2732 49.8182 87.1634C49.8182 88.0582 49.6312 88.8632 49.2571 89.5781C48.8878 90.2884 48.3291 90.8518 47.581 91.2685C46.8376 91.6804 45.9025 91.8864 44.7756 91.8864H41.2102V90.0256H44.5767C45.2917 90.0256 45.8717 89.9025 46.3168 89.6562C46.7618 89.4053 47.0885 89.0644 47.2969 88.6335C47.5052 88.2027 47.6094 87.7126 47.6094 87.1634C47.6094 86.6141 47.5052 86.1264 47.2969 85.7003C47.0885 85.2741 46.7595 84.9403 46.3097 84.6989C45.8646 84.4574 45.2775 84.3366 44.5483 84.3366H41.7926V97H39.598ZM52.2205 97V86.0909H54.2731V87.8239H54.3867C54.5856 87.2367 54.936 86.7751 55.4379 86.4389C55.9445 86.098 56.5174 85.9276 57.1566 85.9276C57.2892 85.9276 57.4454 85.9323 57.6254 85.9418C57.81 85.9512 57.9544 85.9631 58.0586 85.9773V88.0085C57.9734 87.9848 57.8219 87.9588 57.604 87.9304C57.3862 87.8973 57.1684 87.8807 56.9506 87.8807C56.4487 87.8807 56.0013 87.9872 55.6083 88.2003C55.2201 88.4086 54.9123 88.6998 54.685 89.0739C54.4577 89.4432 54.3441 89.8646 54.3441 90.3381V97H52.2205ZM64.1009 97.2202C63.0781 97.2202 62.1856 96.9858 61.4233 96.517C60.661 96.0483 60.0691 95.3925 59.6477 94.5497C59.2263 93.7069 59.0156 92.7221 59.0156 91.5952C59.0156 90.4635 59.2263 89.474 59.6477 88.6264C60.0691 87.7789 60.661 87.1207 61.4233 86.652C62.1856 86.1832 63.0781 85.9489 64.1009 85.9489C65.1236 85.9489 66.0161 86.1832 66.7784 86.652C67.5407 87.1207 68.1326 87.7789 68.554 88.6264C68.9754 89.474 69.1861 90.4635 69.1861 91.5952C69.1861 92.7221 68.9754 93.7069 68.554 94.5497C68.1326 95.3925 67.5407 96.0483 66.7784 96.517C66.0161 96.9858 65.1236 97.2202 64.1009 97.2202ZM64.108 95.4375C64.7708 95.4375 65.3201 95.2623 65.7557 94.9119C66.1913 94.5616 66.5133 94.0952 66.7216 93.5128C66.9347 92.9304 67.0412 92.2888 67.0412 91.5881C67.0412 90.892 66.9347 90.2528 66.7216 89.6705C66.5133 89.0833 66.1913 88.6122 65.7557 88.2571C65.3201 87.902 64.7708 87.7244 64.108 87.7244C63.4403 87.7244 62.8864 87.902 62.446 88.2571C62.0104 88.6122 61.6861 89.0833 61.473 89.6705C61.2647 90.2528 61.1605 90.892 61.1605 91.5881C61.1605 92.2888 61.2647 92.9304 61.473 93.5128C61.6861 94.0952 62.0104 94.5616 62.446 94.9119C62.8864 95.2623 63.4403 95.4375 64.108 95.4375ZM75.6403 97.2131C74.7596 97.2131 73.9736 96.9882 73.2823 96.5384C72.5958 96.0838 72.056 95.4375 71.663 94.5994C71.2747 93.7566 71.0806 92.7457 71.0806 91.5668C71.0806 90.3878 71.2771 89.3793 71.6701 88.5412C72.0678 87.7031 72.6123 87.0616 73.3036 86.6165C73.9949 86.1714 74.7785 85.9489 75.6545 85.9489C76.3316 85.9489 76.8761 86.0625 77.288 86.2898C77.7047 86.5123 78.0266 86.7727 78.2539 87.071C78.4859 87.3693 78.6658 87.6321 78.7937 87.8594H78.9215V82.4545H81.0451V97H78.9712V95.3026H78.7937C78.6658 95.5346 78.4812 95.7997 78.2397 96.098C78.003 96.3963 77.6763 96.6567 77.2596 96.8793C76.8429 97.1018 76.3031 97.2131 75.6403 97.2131ZM76.109 95.402C76.7198 95.402 77.2359 95.241 77.6573 94.919C78.0835 94.5923 78.4054 94.1402 78.6232 93.5625C78.8458 92.9848 78.957 92.3125 78.957 91.5455C78.957 90.7879 78.8481 90.125 78.6303 89.5568C78.4125 88.9886 78.0929 88.5459 77.6715 88.2287C77.2501 87.9115 76.7293 87.7528 76.109 87.7528C75.4698 87.7528 74.9371 87.9186 74.511 88.25C74.0849 88.5814 73.7629 89.0336 73.5451 89.6065C73.332 90.1795 73.2255 90.8258 73.2255 91.5455C73.2255 92.2746 73.3344 92.9304 73.5522 93.5128C73.77 94.0952 74.092 94.5568 74.5181 94.8977C74.949 95.2339 75.4793 95.402 76.109 95.402ZM90.9865 92.4759V86.0909H93.1172V97H91.0291V95.1108H90.9155C90.6645 95.6932 90.2621 96.1785 89.7081 96.5668C89.1589 96.9503 88.4747 97.142 87.6555 97.142C86.9548 97.142 86.3345 96.9882 85.7947 96.6804C85.2597 96.3679 84.8383 95.9062 84.5305 95.2955C84.2275 94.6847 84.076 93.9295 84.076 93.0298V86.0909H86.1996V92.7741C86.1996 93.5175 86.4055 94.1094 86.8175 94.5497C87.2294 94.9901 87.7644 95.2102 88.4226 95.2102C88.8203 95.2102 89.2157 95.1108 89.6087 94.9119C90.0064 94.7131 90.3355 94.4124 90.5959 94.0099C90.861 93.6075 90.9912 93.0961 90.9865 92.4759ZM100.566 97.2202C99.5098 97.2202 98.6007 96.9811 97.8384 96.5028C97.0808 96.0199 96.4985 95.3546 96.0913 94.5071C95.6841 93.6596 95.4805 92.6889 95.4805 91.5952C95.4805 90.4872 95.6888 89.5095 96.1055 88.6619C96.5221 87.8097 97.1093 87.1444 97.8668 86.6662C98.6244 86.188 99.5169 85.9489 100.544 85.9489C101.373 85.9489 102.112 86.1027 102.76 86.4105C103.409 86.7135 103.932 87.1397 104.33 87.6889C104.732 88.2382 104.971 88.8797 105.047 89.6136H102.98C102.867 89.1023 102.606 88.6619 102.199 88.2926C101.797 87.9233 101.257 87.7386 100.58 87.7386C99.988 87.7386 99.4696 87.8949 99.0245 88.2074C98.5842 88.5152 98.2409 88.9555 97.9947 89.5284C97.7485 90.0966 97.6254 90.7689 97.6254 91.5455C97.6254 92.3409 97.7461 93.0275 97.9876 93.6051C98.229 94.1828 98.57 94.6302 99.0103 94.9474C99.4554 95.2647 99.9786 95.4233 100.58 95.4233C100.982 95.4233 101.347 95.3499 101.674 95.2031C102.005 95.0516 102.282 94.8362 102.505 94.5568C102.732 94.2775 102.891 93.9413 102.98 93.5483H105.047C104.971 94.2538 104.742 94.8835 104.358 95.4375C103.975 95.9915 103.461 96.4271 102.817 96.7443C102.178 97.0616 101.427 97.2202 100.566 97.2202ZM112.411 86.0909V87.7955H106.452V86.0909H112.411ZM108.05 83.4773H110.173V93.7969C110.173 94.2088 110.235 94.5189 110.358 94.7273C110.481 94.9309 110.64 95.0705 110.834 95.1463C111.033 95.2173 111.248 95.2528 111.48 95.2528C111.651 95.2528 111.8 95.241 111.928 95.2173C112.055 95.1937 112.155 95.1747 112.226 95.1605L112.609 96.9148C112.486 96.9621 112.311 97.0095 112.084 97.0568C111.857 97.1089 111.572 97.1373 111.232 97.142C110.673 97.1515 110.152 97.0521 109.669 96.8438C109.186 96.6354 108.795 96.3134 108.497 95.8778C108.199 95.4422 108.05 94.8954 108.05 94.2372V83.4773ZM119.238 97.2202C118.215 97.2202 117.322 96.9858 116.56 96.517C115.798 96.0483 115.206 95.3925 114.784 94.5497C114.363 93.7069 114.152 92.7221 114.152 91.5952C114.152 90.4635 114.363 89.474 114.784 88.6264C115.206 87.7789 115.798 87.1207 116.56 86.652C117.322 86.1832 118.215 85.9489 119.238 85.9489C120.26 85.9489 121.153 86.1832 121.915 86.652C122.677 87.1207 123.269 87.7789 123.691 88.6264C124.112 89.474 124.323 90.4635 124.323 91.5952C124.323 92.7221 124.112 93.7069 123.691 94.5497C123.269 95.3925 122.677 96.0483 121.915 96.517C121.153 96.9858 120.26 97.2202 119.238 97.2202ZM119.245 95.4375C119.908 95.4375 120.457 95.2623 120.892 94.9119C121.328 94.5616 121.65 94.0952 121.858 93.5128C122.071 92.9304 122.178 92.2888 122.178 91.5881C122.178 90.892 122.071 90.2528 121.858 89.6705C121.65 89.0833 121.328 88.6122 120.892 88.2571C120.457 87.902 119.908 87.7244 119.245 87.7244C118.577 87.7244 118.023 87.902 117.583 88.2571C117.147 88.6122 116.823 89.0833 116.61 89.6705C116.401 90.2528 116.297 90.892 116.297 91.5881C116.297 92.2888 116.401 92.9304 116.61 93.5128C116.823 94.0952 117.147 94.5616 117.583 94.9119C118.023 95.2623 118.577 95.4375 119.245 95.4375Z" fill="#0F172A"/>
<path d="M39.4091 138V126.364H43.3409C44.25 126.364 44.9962 126.519 45.5795 126.83C46.1629 127.136 46.5947 127.559 46.875 128.097C47.1553 128.634 47.2955 129.246 47.2955 129.932C47.2955 130.617 47.1553 131.225 46.875 131.756C46.5947 132.286 46.1648 132.703 45.5852 133.006C45.0057 133.305 44.2652 133.455 43.3636 133.455H40.1818V132.182H43.3182C43.9394 132.182 44.4394 132.091 44.8182 131.909C45.2008 131.727 45.4773 131.47 45.6477 131.136C45.822 130.799 45.9091 130.398 45.9091 129.932C45.9091 129.466 45.822 129.059 45.6477 128.71C45.4735 128.362 45.1951 128.093 44.8125 127.903C44.4299 127.71 43.9242 127.614 43.2955 127.614H40.8182V138H39.4091ZM44.8864 132.773L47.75 138H46.1136L43.2955 132.773H44.8864ZM53.2344 138H49.6435V126.364H53.3935C54.5223 126.364 55.4882 126.597 56.2912 127.062C57.0942 127.525 57.7098 128.189 58.1378 129.057C58.5658 129.92 58.7798 130.955 58.7798 132.159C58.7798 133.371 58.5639 134.415 58.1321 135.29C57.7003 136.161 57.0715 136.831 56.2457 137.301C55.42 137.767 54.4162 138 53.2344 138ZM51.0526 136.75H53.1435C54.1056 136.75 54.9029 136.564 55.5355 136.193C56.1681 135.822 56.6397 135.294 56.9503 134.608C57.2609 133.922 57.4162 133.106 57.4162 132.159C57.4162 131.22 57.2628 130.411 56.956 129.733C56.6491 129.051 56.1908 128.528 55.581 128.165C54.9711 127.797 54.2116 127.614 53.3026 127.614H51.0526V136.75ZM64.3707 139.455V124.909H65.3026V139.455H64.3707ZM67.5071 129.273C67.4389 128.697 67.1624 128.25 66.6776 127.932C66.1927 127.614 65.598 127.455 64.8935 127.455C64.3783 127.455 63.9276 127.538 63.5412 127.705C63.1586 127.871 62.8594 128.1 62.6435 128.392C62.4313 128.684 62.3253 129.015 62.3253 129.386C62.3253 129.697 62.3991 129.964 62.5469 130.188C62.6984 130.407 62.8916 130.591 63.1264 130.739C63.3613 130.883 63.6075 131.002 63.8651 131.097C64.1226 131.187 64.3594 131.261 64.5753 131.318L65.7571 131.636C66.0601 131.716 66.3973 131.826 66.7685 131.966C67.1435 132.106 67.5014 132.297 67.8423 132.54C68.187 132.778 68.4711 133.085 68.6946 133.46C68.9181 133.835 69.0298 134.295 69.0298 134.841C69.0298 135.47 68.8651 136.038 68.5355 136.545C68.2098 137.053 67.7325 137.456 67.1037 137.756C66.4787 138.055 65.7192 138.205 64.8253 138.205C63.992 138.205 63.2704 138.07 62.6605 137.801C62.0545 137.532 61.5772 137.157 61.2287 136.676C60.884 136.195 60.6889 135.636 60.6435 135H62.098C62.1359 135.439 62.2836 135.803 62.5412 136.091C62.8026 136.375 63.1321 136.587 63.5298 136.727C63.9313 136.864 64.3632 136.932 64.8253 136.932C65.3632 136.932 65.8461 136.845 66.2741 136.67C66.7022 136.492 67.0412 136.246 67.2912 135.932C67.5412 135.614 67.6662 135.242 67.6662 134.818C67.6662 134.432 67.5582 134.117 67.3423 133.875C67.1264 133.633 66.8423 133.436 66.4901 133.284C66.1378 133.133 65.7571 133 65.348 132.886L63.9162 132.477C63.0071 132.216 62.2874 131.843 61.7571 131.358C61.2268 130.873 60.9616 130.239 60.9616 129.455C60.9616 128.803 61.1378 128.235 61.4901 127.75C61.8461 127.261 62.3234 126.883 62.9219 126.614C63.5241 126.341 64.1965 126.205 64.9389 126.205C65.6889 126.205 66.3556 126.339 66.9389 126.608C67.5223 126.873 67.9844 127.237 68.3253 127.699C68.67 128.161 68.8518 128.686 68.8707 129.273H67.5071ZM79.4375 138.159C78.5814 138.159 77.8523 137.926 77.25 137.46C76.6477 136.991 76.1875 136.311 75.8693 135.42C75.5511 134.527 75.392 133.447 75.392 132.182C75.392 130.924 75.5511 129.85 75.8693 128.96C76.1913 128.066 76.6534 127.384 77.2557 126.915C77.8617 126.441 78.589 126.205 79.4375 126.205C80.286 126.205 81.0114 126.441 81.6136 126.915C82.2197 127.384 82.6818 128.066 83 128.96C83.322 129.85 83.483 130.924 83.483 132.182C83.483 133.447 83.3239 134.527 83.0057 135.42C82.6875 136.311 82.2273 136.991 81.625 137.46C81.0227 137.926 80.2936 138.159 79.4375 138.159ZM79.4375 136.909C80.286 136.909 80.9451 136.5 81.4148 135.682C81.8845 134.864 82.1193 133.697 82.1193 132.182C82.1193 131.174 82.0114 130.316 81.7955 129.608C81.5833 128.9 81.2765 128.36 80.875 127.989C80.4773 127.617 79.9981 127.432 79.4375 127.432C78.5966 127.432 77.9394 127.847 77.4659 128.676C76.9924 129.502 76.7557 130.67 76.7557 132.182C76.7557 133.189 76.8617 134.045 77.0739 134.75C77.286 135.455 77.5909 135.991 77.9886 136.358C78.3902 136.725 78.8731 136.909 79.4375 136.909ZM86.2358 138.091C85.9555 138.091 85.715 137.991 85.5142 137.79C85.3134 137.589 85.2131 137.348 85.2131 137.068C85.2131 136.788 85.3134 136.547 85.5142 136.347C85.715 136.146 85.9555 136.045 86.2358 136.045C86.5161 136.045 86.7566 136.146 86.9574 136.347C87.1581 136.547 87.2585 136.788 87.2585 137.068C87.2585 137.254 87.2112 137.424 87.1165 137.58C87.0256 137.735 86.9025 137.86 86.7472 137.955C86.5956 138.045 86.4252 138.091 86.2358 138.091ZM93.0312 138.159C92.1752 138.159 91.446 137.926 90.8438 137.46C90.2415 136.991 89.7813 136.311 89.4631 135.42C89.1449 134.527 88.9858 133.447 88.9858 132.182C88.9858 130.924 89.1449 129.85 89.4631 128.96C89.785 128.066 90.2472 127.384 90.8494 126.915C91.4555 126.441 92.1828 126.205 93.0312 126.205C93.8797 126.205 94.6051 126.441 95.2074 126.915C95.8134 127.384 96.2756 128.066 96.5938 128.96C96.9157 129.85 97.0767 130.924 97.0767 132.182C97.0767 133.447 96.9176 134.527 96.5994 135.42C96.2812 136.311 95.821 136.991 95.2188 137.46C94.6165 137.926 93.8873 138.159 93.0312 138.159ZM93.0312 136.909C93.8797 136.909 94.5388 136.5 95.0085 135.682C95.4782 134.864 95.7131 133.697 95.7131 132.182C95.7131 131.174 95.6051 130.316 95.3892 129.608C95.1771 128.9 94.8703 128.36 94.4688 127.989C94.071 127.617 93.5919 127.432 93.0312 127.432C92.1903 127.432 91.5331 127.847 91.0597 128.676C90.5862 129.502 90.3494 130.67 90.3494 132.182C90.3494 133.189 90.4555 134.045 90.6676 134.75C90.8797 135.455 91.1847 135.991 91.5824 136.358C91.9839 136.725 92.4669 136.909 93.0312 136.909ZM103.031 138.159C102.175 138.159 101.446 137.926 100.844 137.46C100.241 136.991 99.7813 136.311 99.4631 135.42C99.1449 134.527 98.9858 133.447 98.9858 132.182C98.9858 130.924 99.1449 129.85 99.4631 128.96C99.785 128.066 100.247 127.384 100.849 126.915C101.455 126.441 102.183 126.205 103.031 126.205C103.88 126.205 104.605 126.441 105.207 126.915C105.813 127.384 106.276 128.066 106.594 128.96C106.916 129.85 107.077 130.924 107.077 132.182C107.077 133.447 106.918 134.527 106.599 135.42C106.281 136.311 105.821 136.991 105.219 137.46C104.616 137.926 103.887 138.159 103.031 138.159ZM103.031 136.909C103.88 136.909 104.539 136.5 105.009 135.682C105.478 134.864 105.713 133.697 105.713 132.182C105.713 131.174 105.605 130.316 105.389 129.608C105.177 128.9 104.87 128.36 104.469 127.989C104.071 127.617 103.592 127.432 103.031 127.432C102.19 127.432 101.533 127.847 101.06 128.676C100.586 129.502 100.349 130.67 100.349 132.182C100.349 133.189 100.455 134.045 100.668 134.75C100.88 135.455 101.185 135.991 101.582 136.358C101.984 136.725 102.467 136.909 103.031 136.909Z" fill="#0F172A"/>
<rect x="257.5" y="104.5" width="106" height="39" rx="11.5" fill="white"/>
<rect x="257.5" y="104.5" width="106" height="39" rx="11.5" stroke="#16A34A"/>
<path d="M270.696 128H269.298L272.439 119.273H273.96L277.101 128H275.703L273.236 120.858H273.168L270.696 128ZM270.93 124.582H275.464V125.69H270.93V124.582ZM280.898 130.591C280.378 130.591 279.93 130.523 279.555 130.386C279.183 130.25 278.879 130.07 278.643 129.845C278.408 129.621 278.232 129.375 278.115 129.108L279.21 128.656C279.287 128.781 279.389 128.913 279.517 129.053C279.648 129.195 279.824 129.315 280.045 129.415C280.27 129.514 280.558 129.564 280.911 129.564C281.393 129.564 281.793 129.446 282.108 129.21C282.423 128.977 282.581 128.605 282.581 128.094V126.807H282.5C282.423 126.946 282.313 127.101 282.168 127.271C282.026 127.442 281.83 127.589 281.58 127.714C281.33 127.839 281.004 127.902 280.604 127.902C280.087 127.902 279.621 127.781 279.206 127.54C278.794 127.295 278.467 126.936 278.226 126.462C277.987 125.984 277.868 125.398 277.868 124.702C277.868 124.006 277.986 123.409 278.222 122.912C278.46 122.415 278.787 122.034 279.202 121.77C279.616 121.503 280.087 121.369 280.612 121.369C281.018 121.369 281.347 121.438 281.597 121.574C281.847 121.707 282.041 121.864 282.18 122.043C282.322 122.222 282.432 122.379 282.509 122.516H282.602V121.455H283.851V128.145C283.851 128.707 283.72 129.169 283.459 129.53C283.197 129.891 282.844 130.158 282.398 130.331C281.955 130.504 281.455 130.591 280.898 130.591ZM280.885 126.845C281.251 126.845 281.561 126.76 281.814 126.589C282.07 126.416 282.263 126.169 282.393 125.848C282.527 125.524 282.594 125.136 282.594 124.685C282.594 124.244 282.528 123.857 282.398 123.521C282.267 123.186 282.075 122.925 281.822 122.737C281.57 122.547 281.257 122.452 280.885 122.452C280.501 122.452 280.182 122.551 279.926 122.75C279.67 122.946 279.477 123.213 279.347 123.551C279.219 123.889 279.155 124.267 279.155 124.685C279.155 125.114 279.22 125.49 279.351 125.814C279.482 126.138 279.675 126.391 279.93 126.572C280.189 126.754 280.507 126.845 280.885 126.845ZM285.56 128V121.455H286.791V122.494H286.859C286.979 122.142 287.189 121.865 287.49 121.663C287.794 121.459 288.138 121.357 288.521 121.357C288.601 121.357 288.695 121.359 288.803 121.365C288.913 121.371 289 121.378 289.062 121.386V122.605C289.011 122.591 288.92 122.575 288.79 122.558C288.659 122.538 288.528 122.528 288.398 122.528C288.097 122.528 287.828 122.592 287.592 122.72C287.359 122.845 287.175 123.02 287.038 123.244C286.902 123.466 286.834 123.719 286.834 124.003V128H285.56ZM292.752 128.132C292.107 128.132 291.551 127.994 291.086 127.719C290.623 127.44 290.265 127.05 290.012 126.547C289.762 126.041 289.637 125.449 289.637 124.77C289.637 124.099 289.762 123.509 290.012 122.997C290.265 122.486 290.617 122.087 291.069 121.8C291.523 121.513 292.054 121.369 292.662 121.369C293.032 121.369 293.39 121.43 293.736 121.553C294.083 121.675 294.394 121.866 294.669 122.128C294.945 122.389 295.162 122.729 295.321 123.146C295.48 123.561 295.56 124.065 295.56 124.659V125.111H290.357V124.156H294.311C294.311 123.821 294.243 123.524 294.107 123.266C293.971 123.004 293.779 122.798 293.532 122.648C293.287 122.497 293 122.422 292.671 122.422C292.313 122.422 292 122.51 291.733 122.686C291.469 122.859 291.265 123.087 291.12 123.368C290.978 123.646 290.907 123.949 290.907 124.276V125.021C290.907 125.459 290.983 125.831 291.137 126.138C291.293 126.445 291.51 126.679 291.789 126.841C292.067 127 292.392 127.08 292.765 127.08C293.006 127.08 293.226 127.045 293.425 126.977C293.624 126.906 293.796 126.801 293.941 126.662C294.086 126.523 294.196 126.351 294.273 126.146L295.479 126.364C295.382 126.719 295.209 127.03 294.959 127.297C294.712 127.561 294.401 127.767 294.026 127.915C293.654 128.06 293.229 128.132 292.752 128.132ZM299.718 130.591C299.198 130.591 298.751 130.523 298.376 130.386C298.004 130.25 297.7 130.07 297.464 129.845C297.228 129.621 297.052 129.375 296.935 129.108L298.031 128.656C298.107 128.781 298.21 128.913 298.337 129.053C298.468 129.195 298.644 129.315 298.866 129.415C299.09 129.514 299.379 129.564 299.731 129.564C300.214 129.564 300.613 129.446 300.928 129.21C301.244 128.977 301.401 128.605 301.401 128.094V126.807H301.32C301.244 126.946 301.133 127.101 300.988 127.271C300.846 127.442 300.65 127.589 300.4 127.714C300.15 127.839 299.825 127.902 299.424 127.902C298.907 127.902 298.441 127.781 298.026 127.54C297.614 127.295 297.288 126.936 297.046 126.462C296.808 125.984 296.688 125.398 296.688 124.702C296.688 124.006 296.806 123.409 297.042 122.912C297.281 122.415 297.607 122.034 298.022 121.77C298.437 121.503 298.907 121.369 299.433 121.369C299.839 121.369 300.167 121.438 300.417 121.574C300.667 121.707 300.862 121.864 301.001 122.043C301.143 122.222 301.252 122.379 301.329 122.516H301.423V121.455H302.671V128.145C302.671 128.707 302.54 129.169 302.279 129.53C302.018 129.891 301.664 130.158 301.218 130.331C300.775 130.504 300.275 130.591 299.718 130.591ZM299.705 126.845C300.072 126.845 300.381 126.76 300.634 126.589C300.89 126.416 301.083 126.169 301.214 125.848C301.347 125.524 301.414 125.136 301.414 124.685C301.414 124.244 301.349 123.857 301.218 123.521C301.087 123.186 300.896 122.925 300.643 122.737C300.39 122.547 300.077 122.452 299.705 122.452C299.322 122.452 299.002 122.551 298.746 122.75C298.491 122.946 298.298 123.213 298.167 123.551C298.039 123.889 297.975 124.267 297.975 124.685C297.975 125.114 298.04 125.49 298.171 125.814C298.302 126.138 298.495 126.391 298.751 126.572C299.009 126.754 299.327 126.845 299.705 126.845ZM306.285 128.145C305.87 128.145 305.495 128.068 305.16 127.915C304.825 127.759 304.559 127.533 304.363 127.237C304.17 126.942 304.073 126.58 304.073 126.151C304.073 125.781 304.144 125.477 304.286 125.239C304.428 125 304.62 124.811 304.862 124.672C305.103 124.533 305.373 124.428 305.671 124.357C305.969 124.286 306.273 124.232 306.583 124.195C306.975 124.149 307.293 124.112 307.538 124.084C307.782 124.053 307.96 124.003 308.07 123.935C308.181 123.866 308.237 123.756 308.237 123.602V123.572C308.237 123.2 308.131 122.912 307.921 122.707C307.714 122.503 307.404 122.401 306.992 122.401C306.563 122.401 306.225 122.496 305.978 122.686C305.734 122.874 305.565 123.082 305.471 123.312L304.273 123.04C304.415 122.642 304.623 122.321 304.896 122.077C305.171 121.83 305.488 121.651 305.846 121.54C306.204 121.426 306.58 121.369 306.975 121.369C307.237 121.369 307.513 121.401 307.806 121.463C308.102 121.523 308.377 121.634 308.633 121.795C308.891 121.957 309.103 122.189 309.268 122.49C309.433 122.788 309.515 123.176 309.515 123.653V128H308.271V127.105H308.219C308.137 127.27 308.013 127.432 307.849 127.591C307.684 127.75 307.472 127.882 307.214 127.987C306.955 128.092 306.646 128.145 306.285 128.145ZM306.562 127.122C306.914 127.122 307.215 127.053 307.465 126.913C307.718 126.774 307.91 126.592 308.04 126.368C308.174 126.141 308.241 125.898 308.241 125.639V124.795C308.195 124.841 308.107 124.884 307.977 124.923C307.849 124.96 307.702 124.993 307.538 125.021C307.373 125.047 307.212 125.071 307.056 125.094C306.9 125.114 306.769 125.131 306.664 125.145C306.417 125.176 306.191 125.229 305.987 125.303C305.785 125.376 305.623 125.483 305.501 125.622C305.381 125.759 305.322 125.94 305.322 126.168C305.322 126.483 305.438 126.722 305.671 126.884C305.904 127.043 306.201 127.122 306.562 127.122ZM311.212 128V121.455H312.444V122.494H312.512C312.631 122.142 312.841 121.865 313.142 121.663C313.446 121.459 313.79 121.357 314.174 121.357C314.253 121.357 314.347 121.359 314.455 121.365C314.566 121.371 314.652 121.378 314.715 121.386V122.605C314.664 122.591 314.573 122.575 314.442 122.558C314.311 122.538 314.181 122.528 314.05 122.528C313.749 122.528 313.48 122.592 313.245 122.72C313.012 122.845 312.827 123.02 312.691 123.244C312.554 123.466 312.486 123.719 312.486 124.003V128H311.212ZM320.898 128.145C320.483 128.145 320.108 128.068 319.773 127.915C319.438 127.759 319.172 127.533 318.976 127.237C318.783 126.942 318.686 126.58 318.686 126.151C318.686 125.781 318.757 125.477 318.9 125.239C319.042 125 319.233 124.811 319.475 124.672C319.716 124.533 319.986 124.428 320.284 124.357C320.583 124.286 320.887 124.232 321.196 124.195C321.588 124.149 321.907 124.112 322.151 124.084C322.395 124.053 322.573 124.003 322.684 123.935C322.794 123.866 322.85 123.756 322.85 123.602V123.572C322.85 123.2 322.745 122.912 322.534 122.707C322.327 122.503 322.017 122.401 321.605 122.401C321.176 122.401 320.838 122.496 320.591 122.686C320.347 122.874 320.178 123.082 320.084 123.312L318.887 123.04C319.029 122.642 319.236 122.321 319.509 122.077C319.784 121.83 320.101 121.651 320.459 121.54C320.817 121.426 321.194 121.369 321.588 121.369C321.85 121.369 322.127 121.401 322.419 121.463C322.715 121.523 322.99 121.634 323.246 121.795C323.505 121.957 323.716 122.189 323.881 122.49C324.046 122.788 324.128 123.176 324.128 123.653V128H322.884V127.105H322.833C322.75 127.27 322.627 127.432 322.462 127.591C322.297 127.75 322.086 127.882 321.827 127.987C321.569 128.092 321.259 128.145 320.898 128.145ZM321.175 127.122C321.527 127.122 321.828 127.053 322.078 126.913C322.331 126.774 322.523 126.592 322.654 126.368C322.787 126.141 322.854 125.898 322.854 125.639V124.795C322.809 124.841 322.721 124.884 322.59 124.923C322.462 124.96 322.316 124.993 322.151 125.021C321.986 125.047 321.826 125.071 321.669 125.094C321.513 125.114 321.382 125.131 321.277 125.145C321.03 125.176 320.804 125.229 320.6 125.303C320.398 125.376 320.236 125.483 320.114 125.622C319.995 125.759 319.935 125.94 319.935 126.168C319.935 126.483 320.051 126.722 320.284 126.884C320.517 127.043 320.814 127.122 321.175 127.122ZM330.275 119.273V128H329.001V119.273H330.275ZM331.989 128V121.455H333.263V128H331.989ZM332.633 120.445C332.411 120.445 332.221 120.371 332.062 120.223C331.906 120.072 331.827 119.893 331.827 119.686C331.827 119.476 331.906 119.297 332.062 119.149C332.221 118.999 332.411 118.923 332.633 118.923C332.854 118.923 333.043 118.999 333.2 119.149C333.359 119.297 333.438 119.476 333.438 119.686C333.438 119.893 333.359 120.072 333.2 120.223C333.043 120.371 332.854 120.445 332.633 120.445ZM339.882 123.053L338.728 123.257C338.679 123.109 338.603 122.969 338.498 122.835C338.395 122.702 338.256 122.592 338.08 122.507C337.904 122.422 337.684 122.379 337.419 122.379C337.059 122.379 336.757 122.46 336.516 122.622C336.275 122.781 336.154 122.987 336.154 123.24C336.154 123.459 336.235 123.635 336.397 123.768C336.559 123.902 336.82 124.011 337.181 124.097L338.221 124.335C338.823 124.474 339.272 124.689 339.567 124.979C339.863 125.268 340.01 125.645 340.01 126.108C340.01 126.5 339.897 126.849 339.669 127.156C339.445 127.46 339.131 127.699 338.728 127.872C338.327 128.045 337.863 128.132 337.334 128.132C336.601 128.132 336.003 127.976 335.54 127.663C335.077 127.348 334.793 126.901 334.688 126.321L335.919 126.134C335.996 126.455 336.154 126.697 336.392 126.862C336.631 127.024 336.942 127.105 337.326 127.105C337.743 127.105 338.077 127.018 338.327 126.845C338.577 126.669 338.702 126.455 338.702 126.202C338.702 125.997 338.625 125.825 338.472 125.686C338.321 125.547 338.09 125.442 337.777 125.371L336.669 125.128C336.059 124.989 335.607 124.767 335.314 124.463C335.025 124.159 334.88 123.774 334.88 123.308C334.88 122.922 334.988 122.584 335.203 122.294C335.419 122.004 335.718 121.778 336.098 121.616C336.479 121.452 336.915 121.369 337.407 121.369C338.114 121.369 338.671 121.523 339.077 121.83C339.483 122.134 339.752 122.541 339.882 123.053ZM344.467 121.455V122.477H340.891V121.455H344.467ZM341.85 119.886H343.124V126.078C343.124 126.325 343.161 126.511 343.235 126.636C343.309 126.759 343.404 126.842 343.521 126.888C343.64 126.93 343.769 126.952 343.908 126.952C344.011 126.952 344.1 126.945 344.177 126.93C344.254 126.916 344.313 126.905 344.356 126.896L344.586 127.949C344.512 127.977 344.407 128.006 344.271 128.034C344.134 128.065 343.964 128.082 343.759 128.085C343.424 128.091 343.112 128.031 342.822 127.906C342.532 127.781 342.298 127.588 342.119 127.327C341.94 127.065 341.85 126.737 341.85 126.342V119.886ZM347.781 128.145C347.366 128.145 346.991 128.068 346.656 127.915C346.321 127.759 346.055 127.533 345.859 127.237C345.666 126.942 345.569 126.58 345.569 126.151C345.569 125.781 345.64 125.477 345.782 125.239C345.924 125 346.116 124.811 346.358 124.672C346.599 124.533 346.869 124.428 347.167 124.357C347.466 124.286 347.77 124.232 348.079 124.195C348.471 124.149 348.789 124.112 349.034 124.084C349.278 124.053 349.456 124.003 349.566 123.935C349.677 123.866 349.733 123.756 349.733 123.602V123.572C349.733 123.2 349.627 122.912 349.417 122.707C349.21 122.503 348.9 122.401 348.488 122.401C348.059 122.401 347.721 122.496 347.474 122.686C347.23 122.874 347.061 123.082 346.967 123.312L345.77 123.04C345.912 122.642 346.119 122.321 346.392 122.077C346.667 121.83 346.984 121.651 347.342 121.54C347.7 121.426 348.076 121.369 348.471 121.369C348.733 121.369 349.01 121.401 349.302 121.463C349.598 121.523 349.873 121.634 350.129 121.795C350.387 121.957 350.599 122.189 350.764 122.49C350.929 122.788 351.011 123.176 351.011 123.653V128H349.767V127.105H349.716C349.633 127.27 349.51 127.432 349.345 127.591C349.18 127.75 348.968 127.882 348.71 127.987C348.451 128.092 348.142 128.145 347.781 128.145ZM348.058 127.122C348.41 127.122 348.711 127.053 348.961 126.913C349.214 126.774 349.406 126.592 349.537 126.368C349.67 126.141 349.737 125.898 349.737 125.639V124.795C349.691 124.841 349.603 124.884 349.473 124.923C349.345 124.96 349.199 124.993 349.034 125.021C348.869 125.047 348.708 125.071 348.552 125.094C348.396 125.114 348.265 125.131 348.16 125.145C347.913 125.176 347.687 125.229 347.483 125.303C347.281 125.376 347.119 125.483 346.997 125.622C346.877 125.759 346.818 125.94 346.818 126.168C346.818 126.483 346.934 126.722 347.167 126.884C347.4 127.043 347.697 127.122 348.058 127.122Z" fill="#16A34A"/>
</g>
<defs>
<filter id="filter0_d_23_126" x="0" y="0" width="406" height="194" filterUnits="userSpaceOnUse" color-interpolation-filters="sRGB">
<feFlood flood-opacity="0" result="BackgroundImageFix"/>
<feColorMatrix in="SourceAlpha" type="matrix" values="0 0 0 0 0 0 0 0 0 0 0 0 0 0 0 0 0 0 127 0" result="hardAlpha"/>
<feOffset dx="2" dy="10"/>
<feGaussianBlur stdDeviation="12"/>
<feComposite in2="hardAlpha" operator="out"/>
<feColorMatrix type="matrix" values="0 0 0 0 0.0588235 0 0 0 0 0.0901961 0 0 0 0 0.164706 0 0 0 0.06 0"/>
<feBlend mode="normal" in2="BackgroundImageFix" result="effect1_dropShadow_23_126"/>
<feBlend mode="normal" in="SourceGraphic" in2="effect1_dropShadow_23_126" result="shape"/>
</filter>
</defs>
</svg>
